<mxfile host="app.diagrams.net" modified="2023-09-14T05:14:32.549Z" agent="Mozilla/5.0 (Windows NT 10.0; Win64; x64) AppleWebKit/537.36 (KHTML, like Gecko) Chrome/116.0.0.0 Safari/537.36" etag="I9RsZ1OoIjSDX90wWNa9" version="21.7.5" type="device">
  <diagram id="mZ1jXsFTw39e8vWFxzHy" name="Page-1">
    <mxGraphModel dx="1434" dy="828" grid="1" gridSize="10" guides="1" tooltips="1" connect="1" arrows="1" fold="1" page="1" pageScale="1" pageWidth="1169" pageHeight="1654" math="0" shadow="0">
      <root>
        <mxCell id="0" />
        <mxCell id="1" parent="0" />
        <mxCell id="TftSYKpcHe7Bgrr4YejO-1" value="Customer" style="shape=umlActor;verticalLabelPosition=bottom;verticalAlign=top;html=1;outlineConnect=0;" parent="1" vertex="1">
          <mxGeometry x="190" y="240" width="100" height="160" as="geometry" />
        </mxCell>
        <mxCell id="TftSYKpcHe7Bgrr4YejO-3" value="Admin" style="shape=umlActor;verticalLabelPosition=bottom;verticalAlign=top;html=1;outlineConnect=0;" parent="1" vertex="1">
          <mxGeometry x="950" y="240" width="100" height="155" as="geometry" />
        </mxCell>
        <mxCell id="TftSYKpcHe7Bgrr4YejO-4" value="Register" style="ellipse;whiteSpace=wrap;html=1;" parent="1" vertex="1">
          <mxGeometry x="490" y="90" width="120" height="80" as="geometry" />
        </mxCell>
        <mxCell id="TftSYKpcHe7Bgrr4YejO-5" value="Login" style="ellipse;whiteSpace=wrap;html=1;" parent="1" vertex="1">
          <mxGeometry x="490" y="200" width="120" height="80" as="geometry" />
        </mxCell>
        <mxCell id="kyED8NULXGfsoG9jFzMG-1" value="Edit Profile" style="ellipse;whiteSpace=wrap;html=1;" parent="1" vertex="1">
          <mxGeometry x="490" y="660" width="120" height="80" as="geometry" />
        </mxCell>
        <mxCell id="kyED8NULXGfsoG9jFzMG-2" value="Membeli Tiket" style="ellipse;whiteSpace=wrap;html=1;" parent="1" vertex="1">
          <mxGeometry x="490" y="430" width="120" height="80" as="geometry" />
        </mxCell>
        <mxCell id="kyED8NULXGfsoG9jFzMG-3" value="Melihat Jadwal" style="ellipse;whiteSpace=wrap;html=1;" parent="1" vertex="1">
          <mxGeometry x="490" y="550" width="120" height="80" as="geometry" />
        </mxCell>
        <mxCell id="kyED8NULXGfsoG9jFzMG-4" value="Membatalkan Pembelian" style="ellipse;whiteSpace=wrap;html=1;" parent="1" vertex="1">
          <mxGeometry x="700" y="630" width="120" height="80" as="geometry" />
        </mxCell>
        <mxCell id="kyED8NULXGfsoG9jFzMG-5" value="Cetak Jadwal" style="ellipse;whiteSpace=wrap;html=1;" parent="1" vertex="1">
          <mxGeometry x="700" y="747" width="120" height="80" as="geometry" />
        </mxCell>
        <mxCell id="kyED8NULXGfsoG9jFzMG-6" value="Input Data Kereta" style="ellipse;whiteSpace=wrap;html=1;" parent="1" vertex="1">
          <mxGeometry x="700" y="170" width="120" height="80" as="geometry" />
        </mxCell>
        <mxCell id="kyED8NULXGfsoG9jFzMG-7" value="Cetak Pembelian Tiket" style="ellipse;whiteSpace=wrap;html=1;" parent="1" vertex="1">
          <mxGeometry x="700" y="395" width="120" height="80" as="geometry" />
        </mxCell>
        <mxCell id="kyED8NULXGfsoG9jFzMG-8" value="Input Data Tiket" style="ellipse;whiteSpace=wrap;html=1;" parent="1" vertex="1">
          <mxGeometry x="700" y="280" width="120" height="80" as="geometry" />
        </mxCell>
        <mxCell id="kyED8NULXGfsoG9jFzMG-9" value="" style="endArrow=none;html=1;rounded=0;entryX=0.033;entryY=0.738;entryDx=0;entryDy=0;entryPerimeter=0;" parent="1" target="TftSYKpcHe7Bgrr4YejO-5" edge="1">
          <mxGeometry width="50" height="50" relative="1" as="geometry">
            <mxPoint x="270" y="320" as="sourcePoint" />
            <mxPoint x="400" y="360" as="targetPoint" />
          </mxGeometry>
        </mxCell>
        <mxCell id="kyED8NULXGfsoG9jFzMG-15" value="" style="endArrow=none;html=1;rounded=0;entryX=0;entryY=0.5;entryDx=0;entryDy=0;" parent="1" target="kyED8NULXGfsoG9jFzMG-2" edge="1">
          <mxGeometry width="50" height="50" relative="1" as="geometry">
            <mxPoint x="270" y="320" as="sourcePoint" />
            <mxPoint x="410" y="350" as="targetPoint" />
          </mxGeometry>
        </mxCell>
        <mxCell id="kyED8NULXGfsoG9jFzMG-16" value="" style="endArrow=none;html=1;rounded=0;" parent="1" target="kyED8NULXGfsoG9jFzMG-3" edge="1">
          <mxGeometry width="50" height="50" relative="1" as="geometry">
            <mxPoint x="270" y="320" as="sourcePoint" />
            <mxPoint x="420" y="420" as="targetPoint" />
          </mxGeometry>
        </mxCell>
        <mxCell id="kyED8NULXGfsoG9jFzMG-17" value="" style="endArrow=none;html=1;rounded=0;entryX=0.075;entryY=0.763;entryDx=0;entryDy=0;entryPerimeter=0;" parent="1" target="TftSYKpcHe7Bgrr4YejO-4" edge="1">
          <mxGeometry width="50" height="50" relative="1" as="geometry">
            <mxPoint x="270" y="320" as="sourcePoint" />
            <mxPoint x="370" y="310" as="targetPoint" />
          </mxGeometry>
        </mxCell>
        <mxCell id="kyED8NULXGfsoG9jFzMG-29" value="Melihat Harga Tiket" style="ellipse;whiteSpace=wrap;html=1;" parent="1" vertex="1">
          <mxGeometry x="490" y="315" width="120" height="80" as="geometry" />
        </mxCell>
        <mxCell id="kyED8NULXGfsoG9jFzMG-30" value="" style="endArrow=none;html=1;rounded=0;entryX=0.075;entryY=0.2;entryDx=0;entryDy=0;entryPerimeter=0;" parent="1" target="kyED8NULXGfsoG9jFzMG-29" edge="1">
          <mxGeometry width="50" height="50" relative="1" as="geometry">
            <mxPoint x="270" y="320" as="sourcePoint" />
            <mxPoint x="610" y="440" as="targetPoint" />
          </mxGeometry>
        </mxCell>
        <mxCell id="kyED8NULXGfsoG9jFzMG-31" value="" style="html=1;verticalAlign=bottom;endArrow=open;dashed=1;endSize=8;curved=0;rounded=0;exitX=1;exitY=0.413;exitDx=0;exitDy=0;exitPerimeter=0;entryX=0;entryY=0.5;entryDx=0;entryDy=0;" parent="1" source="kyED8NULXGfsoG9jFzMG-2" target="kyED8NULXGfsoG9jFzMG-7" edge="1">
          <mxGeometry relative="1" as="geometry">
            <mxPoint x="620" y="460" as="sourcePoint" />
            <mxPoint x="540" y="460" as="targetPoint" />
          </mxGeometry>
        </mxCell>
        <mxCell id="kyED8NULXGfsoG9jFzMG-32" value="&lt;font style=&quot;font-size: 13px;&quot;&gt;&amp;lt;&amp;lt;include&amp;gt;&amp;gt;&lt;/font&gt;" style="text;html=1;strokeColor=none;fillColor=none;align=center;verticalAlign=middle;whiteSpace=wrap;rounded=0;rotation=-15;" parent="1" vertex="1">
          <mxGeometry x="620" y="420" width="60" height="30" as="geometry" />
        </mxCell>
        <mxCell id="kyED8NULXGfsoG9jFzMG-33" value="" style="endArrow=none;html=1;rounded=0;exitX=1;exitY=0.5;exitDx=0;exitDy=0;" parent="1" source="kyED8NULXGfsoG9jFzMG-7" edge="1">
          <mxGeometry width="50" height="50" relative="1" as="geometry">
            <mxPoint x="920" y="470" as="sourcePoint" />
            <mxPoint x="960" y="320" as="targetPoint" />
          </mxGeometry>
        </mxCell>
        <mxCell id="kyED8NULXGfsoG9jFzMG-34" value="" style="html=1;verticalAlign=bottom;endArrow=open;dashed=1;endSize=8;curved=0;rounded=0;exitX=0.8;exitY=0.938;exitDx=0;exitDy=0;exitPerimeter=0;entryX=0.092;entryY=0.188;entryDx=0;entryDy=0;entryPerimeter=0;" parent="1" source="kyED8NULXGfsoG9jFzMG-2" target="kyED8NULXGfsoG9jFzMG-4" edge="1">
          <mxGeometry relative="1" as="geometry">
            <mxPoint x="620" y="360" as="sourcePoint" />
            <mxPoint x="730" y="660" as="targetPoint" />
          </mxGeometry>
        </mxCell>
        <mxCell id="kyED8NULXGfsoG9jFzMG-35" value="&lt;font style=&quot;font-size: 13px;&quot;&gt;&amp;lt;&amp;lt;include&amp;gt;&amp;gt;&lt;/font&gt;" style="text;html=1;strokeColor=none;fillColor=none;align=center;verticalAlign=middle;whiteSpace=wrap;rounded=0;rotation=45;" parent="1" vertex="1">
          <mxGeometry x="630" y="540" width="60" height="40" as="geometry" />
        </mxCell>
        <mxCell id="kyED8NULXGfsoG9jFzMG-36" value="" style="endArrow=none;html=1;rounded=0;entryX=1;entryY=0.5;entryDx=0;entryDy=0;" parent="1" target="kyED8NULXGfsoG9jFzMG-8" edge="1">
          <mxGeometry width="50" height="50" relative="1" as="geometry">
            <mxPoint x="960" y="320" as="sourcePoint" />
            <mxPoint x="920" y="270" as="targetPoint" />
          </mxGeometry>
        </mxCell>
        <mxCell id="kyED8NULXGfsoG9jFzMG-37" value="" style="endArrow=none;html=1;rounded=0;entryX=1;entryY=1;entryDx=0;entryDy=0;" parent="1" target="kyED8NULXGfsoG9jFzMG-6" edge="1">
          <mxGeometry width="50" height="50" relative="1" as="geometry">
            <mxPoint x="960" y="320" as="sourcePoint" />
            <mxPoint x="920" y="210" as="targetPoint" />
          </mxGeometry>
        </mxCell>
        <mxCell id="kyED8NULXGfsoG9jFzMG-38" value="" style="html=1;verticalAlign=bottom;endArrow=open;dashed=1;endSize=8;curved=0;rounded=0;exitX=0.742;exitY=0.938;exitDx=0;exitDy=0;entryX=0;entryY=0;entryDx=0;entryDy=0;exitPerimeter=0;" parent="1" source="kyED8NULXGfsoG9jFzMG-3" target="kyED8NULXGfsoG9jFzMG-5" edge="1">
          <mxGeometry relative="1" as="geometry">
            <mxPoint x="620" y="700" as="sourcePoint" />
            <mxPoint x="752" y="787" as="targetPoint" />
          </mxGeometry>
        </mxCell>
        <mxCell id="kyED8NULXGfsoG9jFzMG-39" value="&lt;font style=&quot;font-size: 13px;&quot;&gt;&amp;lt;&amp;lt;extend&amp;gt;&amp;gt;&lt;/font&gt;" style="text;html=1;strokeColor=none;fillColor=none;align=center;verticalAlign=middle;whiteSpace=wrap;rounded=0;rotation=45;" parent="1" vertex="1">
          <mxGeometry x="620" y="650" width="60" height="40" as="geometry" />
        </mxCell>
        <mxCell id="NuxwovcDJ9MsIoKIlsKO-1" value="Logout" style="ellipse;whiteSpace=wrap;html=1;" parent="1" vertex="1">
          <mxGeometry x="490" y="780" width="120" height="80" as="geometry" />
        </mxCell>
        <mxCell id="NuxwovcDJ9MsIoKIlsKO-2" value="" style="endArrow=none;html=1;rounded=0;exitX=0.042;exitY=0.25;exitDx=0;exitDy=0;exitPerimeter=0;" parent="1" source="NuxwovcDJ9MsIoKIlsKO-1" edge="1">
          <mxGeometry width="50" height="50" relative="1" as="geometry">
            <mxPoint x="190" y="695" as="sourcePoint" />
            <mxPoint x="270" y="320" as="targetPoint" />
          </mxGeometry>
        </mxCell>
        <mxCell id="NuxwovcDJ9MsIoKIlsKO-4" value="" style="endArrow=none;html=1;rounded=0;entryX=0.042;entryY=0.338;entryDx=0;entryDy=0;entryPerimeter=0;" parent="1" target="kyED8NULXGfsoG9jFzMG-1" edge="1">
          <mxGeometry width="50" height="50" relative="1" as="geometry">
            <mxPoint x="270" y="320" as="sourcePoint" />
            <mxPoint x="360" y="550" as="targetPoint" />
          </mxGeometry>
        </mxCell>
        <mxCell id="CNRNp5YHjgoKRSxIVUcl-1" value="Input Metode Pembayaran" style="ellipse;whiteSpace=wrap;html=1;" vertex="1" parent="1">
          <mxGeometry x="690" y="60" width="120" height="80" as="geometry" />
        </mxCell>
        <mxCell id="CNRNp5YHjgoKRSxIVUcl-2" value="" style="endArrow=none;html=1;rounded=0;entryX=0.917;entryY=0.75;entryDx=0;entryDy=0;entryPerimeter=0;" edge="1" parent="1" target="CNRNp5YHjgoKRSxIVUcl-1">
          <mxGeometry width="50" height="50" relative="1" as="geometry">
            <mxPoint x="960" y="320" as="sourcePoint" />
            <mxPoint x="970" y="190" as="targetPoint" />
          </mxGeometry>
        </mxCell>
        <mxCell id="CNRNp5YHjgoKRSxIVUcl-3" value="Membuat Laporan" style="ellipse;whiteSpace=wrap;html=1;" vertex="1" parent="1">
          <mxGeometry x="700" y="510" width="120" height="80" as="geometry" />
        </mxCell>
        <mxCell id="CNRNp5YHjgoKRSxIVUcl-5" value="" style="endArrow=none;html=1;rounded=0;exitX=0.967;exitY=0.35;exitDx=0;exitDy=0;exitPerimeter=0;" edge="1" parent="1" source="CNRNp5YHjgoKRSxIVUcl-3">
          <mxGeometry width="50" height="50" relative="1" as="geometry">
            <mxPoint x="880" y="495" as="sourcePoint" />
            <mxPoint x="960" y="320" as="targetPoint" />
          </mxGeometry>
        </mxCell>
      </root>
    </mxGraphModel>
  </diagram>
</mxfile>
